<svg width="91" height="90" viewBox="0 0 91 90" fill="none" xmlns="http://www.w3.org/2000/svg">
<rect width="90" height="90" transform="translate(0.75)" fill="white"/>
<rect x="15.75" y="35.5" width="60" height="38.5714" rx="2.14286" fill="#CFBFB4"/>
<path d="M71.4639 66.2708C71.4639 68.0895 69.2365 69.1955 67.5808 68.443C64.9707 67.2566 61.8973 66.5723 58.6074 66.5723C55.3173 66.5723 52.2436 67.2565 49.6332 68.4429C47.9774 69.1955 45.75 68.0894 45.75 66.2706V33.2872C45.75 32.6527 46.026 32.0443 46.538 31.6695C49.636 29.4013 53.9003 28 58.6074 28C63.3144 28.0001 67.578 29.4014 70.6759 31.6695C71.1878 32.0443 71.4639 32.6527 71.4639 33.2872V66.2708Z" fill="#EBE3DE"/>
<path d="M45.7503 70.857C48.8915 68.2289 53.4873 66.5713 58.6074 66.5713H45.7503V70.857Z" fill="#EBE3DE"/>
<path d="M45.749 66.2708C45.749 68.0895 43.5217 69.1955 41.8659 68.443C39.2558 67.2566 36.1825 66.5723 32.8926 66.5723C29.6025 66.5723 26.5288 67.2565 23.9184 68.4429C22.2626 69.1955 20.0352 68.0894 20.0352 66.2707V33.2872C20.0352 32.6527 20.3112 32.0443 20.8231 31.6695C23.9212 29.4013 28.1854 28 32.8926 28C37.5996 28 41.8631 29.4014 44.961 31.6695C45.473 32.0443 45.749 32.6528 45.749 33.2872V66.2708Z" fill="white"/>
<path d="M45.7497 70.857C42.6085 68.2289 38.0127 66.5713 32.8926 66.5713H45.7497V70.857Z" fill="white"/>
<line x1="24.75" y1="52" x2="41.75" y2="52" stroke="#EBE3DE" stroke-width="2"/>
<line x1="24.75" y1="56" x2="41.75" y2="56" stroke="#EBE3DE" stroke-width="2"/>
<line x1="24.75" y1="60" x2="41.75" y2="60" stroke="#EBE3DE" stroke-width="2"/>
<line x1="49.75" y1="52" x2="66.75" y2="52" stroke="white" stroke-width="2"/>
<line x1="49.75" y1="56" x2="66.75" y2="56" stroke="white" stroke-width="2"/>
<line x1="49.75" y1="60" x2="66.75" y2="60" stroke="white" stroke-width="2"/>
<circle cx="45.7492" cy="28.0001" r="16.0714" fill="#F37321"/>
<mask id="mask0_975_26384" style="mask-type:alpha" maskUnits="userSpaceOnUse" x="29" y="11" width="33" height="34">
<circle cx="45.7492" cy="28.0001" r="16.0714" fill="#75370E"/>
</mask>
<g mask="url(#mask0_975_26384)">
<path d="M53.4429 21.4406L57.5504 14.3735C57.7108 14.0976 57.9858 13.9076 58.3006 13.8551L65.2539 12.6962C65.6181 12.6355 65.9915 12.7653 66.2222 13.0536C70.8562 18.8446 68.6826 27.1044 69.2045 28.6701C69.7364 30.2659 68.5351 38.3758 62.6181 43.2976C62.5347 43.367 62.4399 43.4227 62.3392 43.463L53.3618 47.0539C52.8445 47.2609 52.2548 47.0367 52.0056 46.5383L51.2957 45.1185C51.1746 44.8762 51.1497 44.597 51.2262 44.3371L54.2834 33.9423C54.3901 33.5798 54.2978 33.1878 54.0407 32.9109L46.3816 24.6627C46.0191 24.2723 45.9985 23.6749 46.3332 23.2605L47.0507 22.3719C47.2542 22.12 47.5606 21.9736 47.8843 21.9736H52.5165C52.8982 21.9736 53.2511 21.7706 53.4429 21.4406Z" fill="#75370E"/>
<path d="M25.3897 24.6527L24.6137 22.7368C24.4314 22.2868 23.9693 22.0156 23.4875 22.0759L14.036 23.2592C13.7609 23.2937 13.5034 23.4371 13.3386 23.6601C9.23589 29.2123 16.8276 31.5474 16.3027 34.6968C15.633 38.7147 41.3221 51.329 42.4019 48.0897C43.0422 46.1685 42.4578 39.9604 42.4055 37.079C42.4011 36.8358 42.319 36.6023 42.1671 36.4123L40.3223 34.1064C39.9813 33.6801 40.0153 33.0655 40.4014 32.6795L41.6931 31.3878C42.0919 30.9889 42.1132 30.3491 41.7418 29.9246L38.0345 25.6877C37.8311 25.4552 37.5371 25.3218 37.2282 25.3218H30.3483H26.3828C25.9464 25.3218 25.5536 25.0572 25.3897 24.6527Z" fill="#75370E"/>
</g>
</svg>
